<svg viewBox="0 0 400 400" xmlns="http://www.w3.org/2000/svg">
  <rect width="400" height="400" rx="28" fill="#FDF1ED"/>
  <path d="M 200.0 280.0 Q 170.0 340 190.0 380" stroke="#C98A2B" stroke-width="5" fill="none" stroke-linecap="round" opacity="0.55"/>
  <ellipse cx="155.0" cy="310" rx="26" ry="12" fill="#C98A2B" opacity="0.5" transform="rotate(-30 155.0 310)"/>
  <ellipse cx="240.0" cy="190.0" rx="46" ry="28.52" transform="rotate(0.0 240.0 190.0)" fill="#F7C948" opacity="0.92"/><ellipse cx="235.4" cy="208.6" rx="46" ry="28.52" transform="rotate(27.7 235.4 208.6)" fill="#F7C948" opacity="0.92"/><ellipse cx="222.7" cy="222.9" rx="46" ry="28.52" transform="rotate(55.4 222.7 222.9)" fill="#F7C948" opacity="0.92"/><ellipse cx="204.8" cy="229.7" rx="46" ry="28.52" transform="rotate(83.1 204.8 229.7)" fill="#F7C948" opacity="0.92"/><ellipse cx="185.8" cy="227.4" rx="46" ry="28.52" transform="rotate(110.8 185.8 227.4)" fill="#F7C948" opacity="0.92"/><ellipse cx="170.1" cy="216.5" rx="46" ry="28.52" transform="rotate(138.5 170.1 216.5)" fill="#F7C948" opacity="0.92"/><ellipse cx="161.2" cy="199.6" rx="46" ry="28.52" transform="rotate(166.2 161.2 199.6)" fill="#F7C948" opacity="0.92"/><ellipse cx="161.2" cy="180.4" rx="46" ry="28.52" transform="rotate(193.8 161.2 180.4)" fill="#F7C948" opacity="0.92"/><ellipse cx="170.1" cy="163.5" rx="46" ry="28.52" transform="rotate(221.5 170.1 163.5)" fill="#F7C948" opacity="0.92"/><ellipse cx="185.8" cy="152.6" rx="46" ry="28.52" transform="rotate(249.2 185.8 152.6)" fill="#F7C948" opacity="0.92"/><ellipse cx="204.8" cy="150.3" rx="46" ry="28.52" transform="rotate(276.9 204.8 150.3)" fill="#F7C948" opacity="0.92"/><ellipse cx="222.7" cy="157.1" rx="46" ry="28.52" transform="rotate(304.6 222.7 157.1)" fill="#F7C948" opacity="0.92"/><ellipse cx="235.4" cy="171.4" rx="46" ry="28.52" transform="rotate(332.3 235.4 171.4)" fill="#F7C948" opacity="0.92"/>
  <circle cx="200.0" cy="190.0" r="22" fill="#C98A2B"/>
</svg>