<svg viewBox="0 0 400 400" xmlns="http://www.w3.org/2000/svg">
  <rect width="400" height="400" rx="28" fill="#EEF2E8"/>
  <path d="M 200.0 175.0 Q 190.0 330 200.0 380" stroke="#7C9A63" stroke-width="5" fill="none" opacity="0.55" stroke-linecap="round"/>
  <line x1="200.0" y1="170.0" x2="255.0" y2="170.0" stroke="#7C9A63" stroke-width="2" opacity="0.45"/><circle cx="255.0" cy="170.0" r="7" fill="#D7C24A"/><line x1="200.0" y1="170.0" x2="249.6" y2="191.5" stroke="#7C9A63" stroke-width="2" opacity="0.45"/><circle cx="249.6" cy="191.5" r="7" fill="#D7C24A"/><line x1="200.0" y1="170.0" x2="234.3" y2="208.7" stroke="#7C9A63" stroke-width="2" opacity="0.45"/><circle cx="234.3" cy="208.7" r="7" fill="#D7C24A"/><line x1="200.0" y1="170.0" x2="212.2" y2="218.3" stroke="#7C9A63" stroke-width="2" opacity="0.45"/><circle cx="212.2" cy="218.3" r="7" fill="#D7C24A"/><line x1="200.0" y1="170.0" x2="187.8" y2="218.3" stroke="#7C9A63" stroke-width="2" opacity="0.45"/><circle cx="187.8" cy="218.3" r="7" fill="#D7C24A"/><line x1="200.0" y1="170.0" x2="165.7" y2="208.7" stroke="#7C9A63" stroke-width="2" opacity="0.45"/><circle cx="165.7" cy="208.7" r="7" fill="#D7C24A"/><line x1="200.0" y1="170.0" x2="150.4" y2="191.5" stroke="#7C9A63" stroke-width="2" opacity="0.45"/><circle cx="150.4" cy="191.5" r="7" fill="#D7C24A"/><line x1="200.0" y1="170.0" x2="145.0" y2="170.0" stroke="#7C9A63" stroke-width="2" opacity="0.45"/><circle cx="145.0" cy="170.0" r="7" fill="#D7C24A"/><line x1="200.0" y1="170.0" x2="150.4" y2="148.5" stroke="#7C9A63" stroke-width="2" opacity="0.45"/><circle cx="150.4" cy="148.5" r="7" fill="#D7C24A"/><line x1="200.0" y1="170.0" x2="165.7" y2="131.3" stroke="#7C9A63" stroke-width="2" opacity="0.45"/><circle cx="165.7" cy="131.3" r="7" fill="#D7C24A"/><line x1="200.0" y1="170.0" x2="187.8" y2="121.7" stroke="#7C9A63" stroke-width="2" opacity="0.45"/><circle cx="187.8" cy="121.7" r="7" fill="#D7C24A"/><line x1="200.0" y1="170.0" x2="212.2" y2="121.7" stroke="#7C9A63" stroke-width="2" opacity="0.45"/><circle cx="212.2" cy="121.7" r="7" fill="#D7C24A"/><line x1="200.0" y1="170.0" x2="234.3" y2="131.3" stroke="#7C9A63" stroke-width="2" opacity="0.45"/><circle cx="234.3" cy="131.3" r="7" fill="#D7C24A"/><line x1="200.0" y1="170.0" x2="249.6" y2="148.5" stroke="#7C9A63" stroke-width="2" opacity="0.45"/><circle cx="249.6" cy="148.5" r="7" fill="#D7C24A"/>
</svg>