<svg viewBox="0 0 400 400" xmlns="http://www.w3.org/2000/svg">
  <rect width="400" height="400" rx="28" fill="#F2F8FC"/>
  <path d="M 200.0 280.0 Q 170.0 340 190.0 380" stroke="#6B5A8A" stroke-width="5" fill="none" stroke-linecap="round" opacity="0.55"/>
  <ellipse cx="155.0" cy="310" rx="26" ry="12" fill="#6B5A8A" opacity="0.5" transform="rotate(-30 155.0 310)"/>
  <ellipse cx="240.0" cy="190.0" rx="46" ry="28.52" transform="rotate(0.0 240.0 190.0)" fill="#9C7FB8" opacity="0.92"/><ellipse cx="220.0" cy="224.6" rx="46" ry="28.52" transform="rotate(60.0 220.0 224.6)" fill="#9C7FB8" opacity="0.92"/><ellipse cx="180.0" cy="224.6" rx="46" ry="28.52" transform="rotate(120.0 180.0 224.6)" fill="#9C7FB8" opacity="0.92"/><ellipse cx="160.0" cy="190.0" rx="46" ry="28.52" transform="rotate(180.0 160.0 190.0)" fill="#9C7FB8" opacity="0.92"/><ellipse cx="180.0" cy="155.4" rx="46" ry="28.52" transform="rotate(240.0 180.0 155.4)" fill="#9C7FB8" opacity="0.92"/><ellipse cx="220.0" cy="155.4" rx="46" ry="28.52" transform="rotate(300.0 220.0 155.4)" fill="#9C7FB8" opacity="0.92"/>
  <circle cx="200.0" cy="190.0" r="22" fill="#6B5A8A"/>
</svg>