<svg viewBox="0 0 400 400" xmlns="http://www.w3.org/2000/svg">
  <rect width="400" height="400" rx="28" fill="#EEF2E8"/>
  <line x1="200.0" y1="190.0" x2="200.0" y2="360" stroke="#3E5530" stroke-width="5" opacity="0.55" stroke-linecap="round"/>
  <g transform="rotate(-25 162.0 170.0)"><ellipse cx="162.0" cy="170.0" rx="17.0" ry="29.0" fill="#5C7A48" opacity="0.9"/><line x1="162.0" y1="143.9" x2="162.0" y2="196.1" stroke="#3E5530" stroke-width="2" opacity="0.5"/></g><g transform="rotate(0 200.0 145.0)"><ellipse cx="200.0" cy="145.0" rx="19.5" ry="33.3" fill="#5C7A48" opacity="0.9"/><line x1="200.0" y1="115.0" x2="200.0" y2="175.0" stroke="#3E5530" stroke-width="2" opacity="0.5"/></g><g transform="rotate(25 238.0 170.0)"><ellipse cx="238.0" cy="170.0" rx="17.0" ry="29.0" fill="#5C7A48" opacity="0.9"/><line x1="238.0" y1="143.9" x2="238.0" y2="196.1" stroke="#3E5530" stroke-width="2" opacity="0.5"/></g><g transform="rotate(-45 155.0 220.0)"><ellipse cx="155.0" cy="220.0" rx="14.4" ry="24.6" fill="#5C7A48" opacity="0.9"/><line x1="155.0" y1="197.8" x2="155.0" y2="242.2" stroke="#3E5530" stroke-width="2" opacity="0.5"/></g><g transform="rotate(45 245.0 220.0)"><ellipse cx="245.0" cy="220.0" rx="14.4" ry="24.6" fill="#5C7A48" opacity="0.9"/><line x1="245.0" y1="197.8" x2="245.0" y2="242.2" stroke="#3E5530" stroke-width="2" opacity="0.5"/></g><g transform="rotate(0 200.0 250.0)"><ellipse cx="200.0" cy="250.0" rx="15.3" ry="26.1" fill="#5C7A48" opacity="0.9"/><line x1="200.0" y1="226.5" x2="200.0" y2="273.5" stroke="#3E5530" stroke-width="2" opacity="0.5"/></g>
</svg>