<svg viewBox="0 0 400 400" xmlns="http://www.w3.org/2000/svg">
  <rect width="400" height="400" rx="28" fill="#F2F8FC"/>
  <path d="M 200.0 280.0 Q 170.0 340 190.0 380" stroke="#4A88AD" stroke-width="5" fill="none" stroke-linecap="round" opacity="0.55"/>
  <ellipse cx="155.0" cy="310" rx="26" ry="12" fill="#4A88AD" opacity="0.5" transform="rotate(-30 155.0 310)"/>
  <ellipse cx="240.0" cy="190.0" rx="46" ry="28.52" transform="rotate(0.0 240.0 190.0)" fill="#9C7BC9" opacity="0.92"/><ellipse cx="232.4" cy="213.5" rx="46" ry="28.52" transform="rotate(36.0 232.4 213.5)" fill="#9C7BC9" opacity="0.92"/><ellipse cx="212.4" cy="228.0" rx="46" ry="28.52" transform="rotate(72.0 212.4 228.0)" fill="#9C7BC9" opacity="0.92"/><ellipse cx="187.6" cy="228.0" rx="46" ry="28.52" transform="rotate(108.0 187.6 228.0)" fill="#9C7BC9" opacity="0.92"/><ellipse cx="167.6" cy="213.5" rx="46" ry="28.52" transform="rotate(144.0 167.6 213.5)" fill="#9C7BC9" opacity="0.92"/><ellipse cx="160.0" cy="190.0" rx="46" ry="28.52" transform="rotate(180.0 160.0 190.0)" fill="#9C7BC9" opacity="0.92"/><ellipse cx="167.6" cy="166.5" rx="46" ry="28.52" transform="rotate(216.0 167.6 166.5)" fill="#9C7BC9" opacity="0.92"/><ellipse cx="187.6" cy="152.0" rx="46" ry="28.52" transform="rotate(252.0 187.6 152.0)" fill="#9C7BC9" opacity="0.92"/><ellipse cx="212.4" cy="152.0" rx="46" ry="28.52" transform="rotate(288.0 212.4 152.0)" fill="#9C7BC9" opacity="0.92"/><ellipse cx="232.4" cy="166.5" rx="46" ry="28.52" transform="rotate(324.0 232.4 166.5)" fill="#9C7BC9" opacity="0.92"/>
  <circle cx="200.0" cy="190.0" r="22" fill="#4A88AD"/>
</svg>