<svg viewBox="0 0 400 400" xmlns="http://www.w3.org/2000/svg">
  <rect width="400" height="400" rx="28" fill="#F2F8FC"/>
  <path d="M 200.0 280.0 Q 170.0 340 190.0 380" stroke="#7C9A63" stroke-width="5" fill="none" stroke-linecap="round" opacity="0.55"/>
  <ellipse cx="155.0" cy="310" rx="26" ry="12" fill="#7C9A63" opacity="0.5" transform="rotate(-30 155.0 310)"/>
  <ellipse cx="240.0" cy="190.0" rx="46" ry="28.52" transform="rotate(0.0 240.0 190.0)" fill="#E8B923" opacity="0.92"/><ellipse cx="237.0" cy="205.3" rx="46" ry="28.52" transform="rotate(22.5 237.0 205.3)" fill="#E8B923" opacity="0.92"/><ellipse cx="228.3" cy="218.3" rx="46" ry="28.52" transform="rotate(45.0 228.3 218.3)" fill="#E8B923" opacity="0.92"/><ellipse cx="215.3" cy="227.0" rx="46" ry="28.52" transform="rotate(67.5 215.3 227.0)" fill="#E8B923" opacity="0.92"/><ellipse cx="200.0" cy="230.0" rx="46" ry="28.52" transform="rotate(90.0 200.0 230.0)" fill="#E8B923" opacity="0.92"/><ellipse cx="184.7" cy="227.0" rx="46" ry="28.52" transform="rotate(112.5 184.7 227.0)" fill="#E8B923" opacity="0.92"/><ellipse cx="171.7" cy="218.3" rx="46" ry="28.52" transform="rotate(135.0 171.7 218.3)" fill="#E8B923" opacity="0.92"/><ellipse cx="163.0" cy="205.3" rx="46" ry="28.52" transform="rotate(157.5 163.0 205.3)" fill="#E8B923" opacity="0.92"/><ellipse cx="160.0" cy="190.0" rx="46" ry="28.52" transform="rotate(180.0 160.0 190.0)" fill="#E8B923" opacity="0.92"/><ellipse cx="163.0" cy="174.7" rx="46" ry="28.52" transform="rotate(202.5 163.0 174.7)" fill="#E8B923" opacity="0.92"/><ellipse cx="171.7" cy="161.7" rx="46" ry="28.52" transform="rotate(225.0 171.7 161.7)" fill="#E8B923" opacity="0.92"/><ellipse cx="184.7" cy="153.0" rx="46" ry="28.52" transform="rotate(247.5 184.7 153.0)" fill="#E8B923" opacity="0.92"/><ellipse cx="200.0" cy="150.0" rx="46" ry="28.52" transform="rotate(270.0 200.0 150.0)" fill="#E8B923" opacity="0.92"/><ellipse cx="215.3" cy="153.0" rx="46" ry="28.52" transform="rotate(292.5 215.3 153.0)" fill="#E8B923" opacity="0.92"/><ellipse cx="228.3" cy="161.7" rx="46" ry="28.52" transform="rotate(315.0 228.3 161.7)" fill="#E8B923" opacity="0.92"/><ellipse cx="237.0" cy="174.7" rx="46" ry="28.52" transform="rotate(337.5 237.0 174.7)" fill="#E8B923" opacity="0.92"/>
  <circle cx="200.0" cy="190.0" r="22" fill="#7C9A63"/>
</svg>