<svg viewBox="0 0 400 400" xmlns="http://www.w3.org/2000/svg">
  <rect width="400" height="400" rx="28" fill="#F2F8FC"/>
  <path d="M 130.0 170.0
           C 110.0 200.0, 140.0 220.0, 130.0 260.0
           C 125.0 290.0, 160.0 300.0, 170.0 270.0
           C 190.0 280.0, 210.0 250.0, 230.0 265.0
           C 255.0 280.0, 285.0 250.0, 270.0 220.0
           C 295.0 205.0, 270.0 165.0, 240.0 175.0
           C 220.0 150.0, 180.0 145.0, 160.0 165.0
           C 150.0 160.0, 140.0 160.0, 130.0 170.0 Z"
        fill="#C9AF8A" opacity="0.92"/>
  <path d="M 170.0 195.0 Q 200.0 210.0 225.0 200.0" stroke="#8FAE78" stroke-width="3" fill="none" opacity="0.4"/>
  <line x1="205.0" y1="140.0" x2="205.0" y2="172.0" stroke="#8FAE78" stroke-width="5" opacity="0.5" stroke-linecap="round"/>
  <ellipse cx="185.0" cy="132.0" rx="20" ry="10" fill="#8FAE78" opacity="0.55" transform="rotate(-20 185.0 132.0)"/>
  <ellipse cx="225.0" cy="132.0" rx="20" ry="10" fill="#8FAE78" opacity="0.55" transform="rotate(20 225.0 132.0)"/>
</svg>